<svg id="Layer_1" data-name="Layer 1" xmlns="http://www.w3.org/2000/svg" xmlns:xlink="http://www.w3.org/1999/xlink" viewBox="0 0 50.28 50.81">
  <defs>
    <linearGradient id="linear-gradient" x1="170.69" y1="115.8" x2="183.4" y2="115.8" gradientUnits="userSpaceOnUse">
      <stop offset="0.18" stop-color="#f9ed32"/>
      <stop offset="0.44" stop-color="#f7941d"/>
      <stop offset="0.83" stop-color="#f7941d"/>
    </linearGradient>
    <linearGradient id="linear-gradient-2" x1="179.72" y1="118.9" x2="188.71" y2="118.9" xlink:href="#linear-gradient"/>
    <linearGradient id="linear-gradient-3" x1="188.54" y1="117.01" x2="195.07" y2="117.01" xlink:href="#linear-gradient"/>
    <linearGradient id="linear-gradient-4" x1="193.54" y1="117.22" x2="198.46" y2="117.22" xlink:href="#linear-gradient"/>
    <linearGradient id="linear-gradient-5" x1="158.93" y1="120.19" x2="182.45" y2="120.19" xlink:href="#linear-gradient"/>
    <linearGradient id="linear-gradient-6" x1="175.39" y1="129.24" x2="187.02" y2="129.24" xlink:href="#linear-gradient"/>
    <linearGradient id="linear-gradient-7" x1="185.41" y1="130.24" x2="197.22" y2="130.24" xlink:href="#linear-gradient"/>
    <linearGradient id="linear-gradient-8" x1="182.79" y1="139.53" x2="209.21" y2="139.53" xlink:href="#linear-gradient"/>
  </defs>
  <title>logo</title>
  <path d="M179.58,119.5l-.49.42a5.52,5.52,0,0,0,.39-2.14,7.35,7.35,0,0,0-1.22-4.16,10.37,10.37,0,0,1-1.81,4.32,6.14,6.14,0,0,1-3.35,2.72,4.64,4.64,0,0,1-1.46.07,2.11,2.11,0,0,1-.59-.18c-.24-.12-.36-.27-.36-.43s.07-.17.23-.17a2.39,2.39,0,0,1,.65.16,2.41,2.41,0,0,0,.73.16,3.33,3.33,0,0,0,1.14-.18,6.33,6.33,0,0,0,3-2.87,7.47,7.47,0,0,0,1.31-4s0-.09,0-.18a4,4,0,0,0-3-1.51,3.48,3.48,0,0,0-1.17.15c-.51.15-.77.39-.77.72s.35.75,1,1.21q.12,0,.12.12c0,.14-.13.21-.38.21a.25.25,0,0,1-.12,0,1.66,1.66,0,0,1-.66-.6,1.5,1.5,0,0,1-.31-.8.6.6,0,0,1,.07-.27,6.28,6.28,0,0,1,.74-1,2,2,0,0,1,1.34-.36l.53,0a4.42,4.42,0,0,1,3.45,2.26,7.7,7.7,0,0,1,1.26,4.27A5.3,5.3,0,0,1,179.58,119.5Zm3.82-6.74a21.21,21.21,0,0,0-1.88,3.94,13,13,0,0,0-.84,2.65c0,.21.07.31.21.31s.29-.1.5-.31.21-.22.41-.45a.17.17,0,0,1,.1,0s.08,0,.08.13a.28.28,0,0,1-.16.26l-.72.47a4,4,0,0,1-.62.4c-.17.09-.29.09-.37,0a.3.3,0,0,1,0-.19,11.28,11.28,0,0,1,.61-2.44c.37-1.14.78-2.24,1.22-3.28,0,0,0-.06,0-.13a3.44,3.44,0,0,1,.59-1.59.2.2,0,0,1,.2-.09,1.36,1.36,0,0,1,.45.12C183.33,112.62,183.43,112.7,183.4,112.76Z" transform="translate(-158.93 -104.56)" style="fill: url(#linear-gradient)"/>
  <path d="M188.16,115.82c-.1,0-.14,0-.14-.11a.09.09,0,0,1,.06-.08.51.51,0,0,0,.19-.45.78.78,0,0,0-.6-.82,2,2,0,0,0-.66-.1,3.31,3.31,0,0,0-2.38,1.2,6.51,6.51,0,0,0-1.44,2.36,2.51,2.51,0,0,0-.13.82c0,.62.19.94.58.94s1.12-.56,1.85-1.67a17.66,17.66,0,0,0,1.26-2.27,1,1,0,0,1,.43-.33,1.32,1.32,0,0,1,.55-.17q.14,0,.12.09a10.36,10.36,0,0,1-1,3.06,16.79,16.79,0,0,1-1.71,2.76,8.32,8.32,0,0,1-1.85,1.75,4.14,4.14,0,0,1-2.34.89,1.3,1.3,0,0,1-.88-.29,1,1,0,0,1-.35-.8.94.94,0,0,1,.56-1c.06,0,.09,0,.09.05a.1.1,0,0,1-.07.12.52.52,0,0,0-.23.47.83.83,0,0,0,.61.82,2.38,2.38,0,0,0,.72.13,3.79,3.79,0,0,0,2.6-1.3,8.94,8.94,0,0,0,1.68-2.31,5.47,5.47,0,0,0,.76-2.72q-1.86,3-3.18,3a.86.86,0,0,1-.75-.39,1.39,1.39,0,0,1-.24-.84,2.48,2.48,0,0,1,.09-.65,5.69,5.69,0,0,1,1.74-2.7A4.33,4.33,0,0,1,187,114.1a2.62,2.62,0,0,1,.67.08c.68.16,1,.46,1,.9A.73.73,0,0,1,188.16,115.82Z" transform="translate(-158.93 -104.56)" style="fill: url(#linear-gradient-2)"/>
  <path d="M194.72,115.63a.87.87,0,0,1,.21,0c.09,0,.14,0,.14,0a15,15,0,0,1-1.74,1,8,8,0,0,1-2,2.27l0,0a.3.3,0,0,1,0-.14,5.27,5.27,0,0,0,1.69-2.39,13.27,13.27,0,0,1-3.07.53,3.19,3.19,0,0,0-.56,1.67,1,1,0,0,0,.2.71.89.89,0,0,0,.69.25,2.71,2.71,0,0,0,1.61-.75,7.66,7.66,0,0,0,1.24-1.34h0a.44.44,0,0,1,.06.1c-1.11,1.6-2.19,2.41-3.26,2.43a1.27,1.27,0,0,1-1-.39,1.3,1.3,0,0,1-.39-1,1.23,1.23,0,0,1,.09-.43,5.27,5.27,0,0,1,.92-1.7.63.63,0,0,1-.24-.44,1.59,1.59,0,0,1,1.11-1.62,4.3,4.3,0,0,1,2.08-.43q1.29.06,1.26,1.23a2.59,2.59,0,0,1-.18.86A4.72,4.72,0,0,0,194.72,115.63Zm-1.7.59a2.84,2.84,0,0,0,.08-.59,1.67,1.67,0,0,0-.19-.89.92.92,0,0,0-.72-.48,2.06,2.06,0,0,0-.33,0,2.88,2.88,0,0,0-1.77.57,1.24,1.24,0,0,0-.56,1,.42.42,0,0,0,.26.43,6,6,0,0,1,2.62-1.57l.12,0s0,0,0,.08a1.78,1.78,0,0,1-.29.19,7.32,7.32,0,0,0-1.93,1.46c.31,0,.59,0,.87,0A11,11,0,0,0,193,116.22Z" transform="translate(-158.93 -104.56)" style="fill: url(#linear-gradient-3)"/>
  <path d="M198.46,114.93c0,.71-.19,1.13-.57,1.27,0,0-.09,0-.09,0a.12.12,0,0,1,.08-.12,1.25,1.25,0,0,0,.13-.54.75.75,0,0,0-.22-.56.73.73,0,0,0-.56-.2,2.48,2.48,0,0,0-1.82,1.12,4.86,4.86,0,0,0-1,2,2.83,2.83,0,0,0-.09.68c0,.61.24.91.72.91a1.61,1.61,0,0,0,1.07-.45,2.43,2.43,0,0,0,.67-1s0,0,.06,0,.06,0,.06.11a.69.69,0,0,1-.23.44,3.32,3.32,0,0,1-2.17,1.36.88.88,0,0,1-.75-.38,1.33,1.33,0,0,1-.24-.82,2.41,2.41,0,0,1,.09-.64,5.27,5.27,0,0,1,1.75-2.66,3.14,3.14,0,0,1,1.68-.81h.36C198.11,114.56,198.46,114.68,198.46,114.93Z" transform="translate(-158.93 -104.56)" style="fill: url(#linear-gradient-4)"/>
  <path d="M182.45,108.41a3.93,3.93,0,0,1-1.62,3.57,1.8,1.8,0,0,1-.8.37c-.1,0-.15,0-.15-.13s.16-.44.48-.69a2.34,2.34,0,0,0,1-1.82,4.83,4.83,0,0,0-.3-1.5c-.47-1.38-1.77-2.07-3.89-2.07a10.27,10.27,0,0,0-4.28,1A8.61,8.61,0,0,0,169,110.2a9.59,9.59,0,0,0-1.74,5.51q0,3.66,2.37,4.54,7.59,2.85,7.59,6.94c0,2.08-1.36,3.85-4.06,5.31a12.88,12.88,0,0,1-6.18,1.67,11,11,0,0,1-2.12-.21,5.88,5.88,0,0,0,2.2,1.34h0a.15.15,0,0,1,.1.16c0,.25-.17.37-.5.37-.74,0-1.64-.69-2.7-2.06a6.65,6.65,0,0,1-2.65-1.34,7.35,7.35,0,0,1-1.86-3.23,10.51,10.51,0,0,1-.53-3.16,6.36,6.36,0,0,1,.35-2.14c.54-1.49,1.19-2.23,2-2.23.49,0,.83.6,1,1.78.05.38.12,1.28.2,2.71a30.84,30.84,0,0,0,.33,3.4,10,10,0,0,0,1.31,3.47,8.44,8.44,0,0,0,2.55.37,13.14,13.14,0,0,0,5-1.1q3.66-1.5,3.66-4.14c0-2.21-2.35-4.22-7.06-6a3.42,3.42,0,0,1-1.79-1.82,7.57,7.57,0,0,1-.65-3.29q0-7.18,7.2-11a11.81,11.81,0,0,1,5.4-1.54C181.09,104.56,182.45,105.84,182.45,108.41Zm-19.24,24.22a19.26,19.26,0,0,1-2-7.79c-.12-1.46-.27-2.19-.46-2.19-.6,0-.9.88-.9,2.63a10.61,10.61,0,0,0,1.41,5.56A4.79,4.79,0,0,0,163.21,132.63Z" transform="translate(-158.93 -104.56)" style="fill: url(#linear-gradient-5)"/>
  <path d="M186.85,123.06c.11,0,.16,0,.17,0s-.09.26-.31.45a1.67,1.67,0,0,1-.61.38h0a13.11,13.11,0,0,0-3.15,1.69,14.16,14.16,0,0,0-2.3,2.06,15,15,0,0,0-3,4.53.17.17,0,0,0,.07.21l1.52-1.59a20.46,20.46,0,0,1,1.91-1.75,6.72,6.72,0,0,1,1.84-.88,10.66,10.66,0,0,1,2.22-.53c.73-.08,1.15,0,1.25.29s-.29.86-1.16,1.77a25.3,25.3,0,0,0-1.75,1.94l-1,1.56.35,0c.17,0,.26,0,.26,0s-.06.13-.21.26c-.24.37-.51.77-.82,1.2a2.37,2.37,0,0,1-1,.43,6.72,6.72,0,0,1-1.25.3c-.1,0-.14,0-.11,0a38.71,38.71,0,0,0,3.74-5.34,1.84,1.84,0,0,0,.31-1.06c0-.41-.3-.58-.77-.53a4,4,0,0,0-1.69.76,22.17,22.17,0,0,0-3.54,3.59c-.16.3-.36.65-.6,1.07a2.47,2.47,0,0,1-.78.49,3.57,3.57,0,0,1-1,.38c-.09,0-.13,0-.14-.06a14.79,14.79,0,0,1,2.8-5,18.26,18.26,0,0,1,5.7-5.19c-.24,0-.36-.06-.36-.13s.31-.21.95-.46l1.15-.43A8.78,8.78,0,0,1,186.85,123.06Z" transform="translate(-158.93 -104.56)" style="fill: url(#linear-gradient-6)"/>
  <path d="M196.59,128.33a2.37,2.37,0,0,1,.37-.05c.17,0,.26,0,.26.07a30.07,30.07,0,0,1-3.15,1.41,12.48,12.48,0,0,1-3.58,3.15.16.16,0,0,1-.09,0,.34.34,0,0,1,0-.2,7.68,7.68,0,0,0,3.06-3.31,31,31,0,0,1-5.55.73,3.86,3.86,0,0,0-1,2.32,1.15,1.15,0,0,0,.37,1,1.89,1.89,0,0,0,1.24.34,5.71,5.71,0,0,0,2.91-1,12.28,12.28,0,0,0,2.25-1.87h.06a.31.31,0,0,1,.11.14q-3,3.33-5.88,3.37a2.78,2.78,0,0,1-1.8-.54,1.61,1.61,0,0,1-.7-1.38,1.55,1.55,0,0,1,.15-.6,7.16,7.16,0,0,1,1.68-2.34.83.83,0,0,1-.44-.62c-.13-1,.54-1.7,2-2.25a9.8,9.8,0,0,1,3.78-.59q2.31.07,2.28,1.71a3.54,3.54,0,0,1-.33,1.18A9.84,9.84,0,0,0,196.59,128.33Zm-3.08.82a3.5,3.5,0,0,0,.15-.82,1.9,1.9,0,0,0-.35-1.23,1.75,1.75,0,0,0-1.3-.67l-.61,0a6.32,6.32,0,0,0-3.19.8,1.71,1.71,0,0,0-1,1.38.6.6,0,0,0,.48.6A12,12,0,0,1,192.4,127l.22,0s.06,0,0,.1a3,3,0,0,1-.52.26,13.67,13.67,0,0,0-3.49,2c.55,0,1.07.07,1.56.07A23,23,0,0,0,193.51,129.15Z" transform="translate(-158.93 -104.56)" style="fill: url(#linear-gradient-7)"/>
  <path d="M209,130.27a17.29,17.29,0,0,1-3.53,6.67,20.43,20.43,0,0,1-5.24,5.14,9,9,0,0,1-4.72,1.14,42.18,42.18,0,0,1-5.12,10.32c-.15.2-.28.3-.38.3a.76.76,0,0,1-.4-.21.81.81,0,0,0-.45-.21.68.68,0,0,0-.37.12,7.6,7.6,0,0,1-4,1.83c-1.38,0-2-.92-2-2.76,0-.31.13-.47.41-.47s.31.14.33.43c.08.73.11,1.16.11,1.27a1.09,1.09,0,0,0,1.15.76q3.09,0,6-4.2a30.91,30.91,0,0,0,3.49-7.26,5.94,5.94,0,0,1-2.67-.93c-.1,0-.15-.12-.15-.26a1.93,1.93,0,0,1,.76-1.27c.51-.48.91-.67,1.21-.56a10.63,10.63,0,0,0,1.52.85,32.28,32.28,0,0,0,1.34-8.66,14,14,0,0,0-.15-2.12,2.46,2.46,0,0,1-.56-1.06,25.68,25.68,0,0,1,1-3.31,3.23,3.23,0,0,1,1.24-1.39,3.16,3.16,0,0,1,1.65-.74c.2,0,.3.12.3.34q-.22,7.14-3.6,17.41a6.81,6.81,0,0,0,2.09.34,4.63,4.63,0,0,0,3.16-1.31,17.58,17.58,0,0,0,2.35-2.94,19.54,19.54,0,0,0,2.61-5.18,10.54,10.54,0,0,0,.41-3.18c0-1.61-.34-2.42-1-2.42-1,0-2.31,1.53-4.1,4.59a50,50,0,0,0-3.92,8.36q-.18.51-.3.51c-.1,0-.16-.21-.19-.64a34.22,34.22,0,0,1,7-12.69,11.25,11.25,0,0,1,1.68-1.49,4.23,4.23,0,0,1,2.19-1.06c.79,0,1.19,1.14,1.19,3.44A13.58,13.58,0,0,1,209,130.27Z" transform="translate(-158.93 -104.56)" style="fill: url(#linear-gradient-8)"/>
</svg>
